<?xml version="1.0" standalone="no"?><!DOCTYPE svg PUBLIC "-//W3C//DTD SVG 1.1//EN" "http://www.w3.org/Graphics/SVG/1.1/DTD/svg11.dtd"><svg t="1696672632100" class="icon" viewBox="0 0 1024 1024" version="1.1" xmlns="http://www.w3.org/2000/svg" p-id="6611" xmlns:xlink="http://www.w3.org/1999/xlink" width="200" height="200"><path d="M384 938.666667m-85.333333 0a85.333333 85.333333 0 1 0 170.666666 0 85.333333 85.333333 0 1 0-170.666666 0Z" p-id="6612"></path><path d="M853.333333 938.666667m-85.333333 0a85.333333 85.333333 0 1 0 170.666667 0 85.333333 85.333333 0 1 0-170.666667 0Z" p-id="6613"></path><path d="M410.453333 768a128 128 0 0 1-124.586666-103.253333L213.333333 308.906667v-3.413334L178.346667 128H42.666667a42.666667 42.666667 0 0 1 0-85.333333h170.666666a42.666667 42.666667 0 0 1 42.666667 34.133333L290.986667 256H981.333333a42.666667 42.666667 0 0 1 42.666667 50.773333l-68.266667 357.973334a128 128 0 0 1-128 103.253333H410.453333zM308.053333 341.333333l61.44 306.773334a44.8 44.8 0 0 0 42.666667 34.56h415.573333a42.666667 42.666667 0 0 0 42.666667-34.56L929.706667 341.333333z" p-id="6614"></path></svg>